<svg width="342" height="73" viewBox="0 0 342 73" fill="none" xmlns="http://www.w3.org/2000/svg">
<path d="M67.76 35.616H79.6V37.632H67.76V35.616ZM68.016 45.952H81.488V48H65.648V25.6H81.008V27.648H68.016V45.952ZM90.5505 48L83.0945 31.2H85.4625L92.3105 46.784H91.1905L98.1345 31.2H100.375L92.8865 48H90.5505ZM110.242 48.16C108.492 48.16 106.956 47.7973 105.634 47.072C104.311 46.3253 103.276 45.312 102.53 44.032C101.783 42.7307 101.41 41.248 101.41 39.584C101.41 37.92 101.762 36.448 102.466 35.168C103.191 33.888 104.172 32.8853 105.41 32.16C106.668 31.4133 108.076 31.04 109.634 31.04C111.212 31.04 112.61 31.4027 113.826 32.128C115.063 32.832 116.034 33.8347 116.738 35.136C117.442 36.416 117.794 37.8987 117.794 39.584C117.794 39.6907 117.783 39.808 117.762 39.936C117.762 40.0427 117.762 40.16 117.762 40.288H103.138V38.592H116.546L115.65 39.264C115.65 38.048 115.383 36.9707 114.85 36.032C114.338 35.072 113.634 34.3253 112.738 33.792C111.842 33.2587 110.807 32.992 109.634 32.992C108.482 32.992 107.447 33.2587 106.53 33.792C105.612 34.3253 104.898 35.072 104.386 36.032C103.874 36.992 103.618 38.0907 103.618 39.328V39.68C103.618 40.96 103.895 42.0907 104.45 43.072C105.026 44.032 105.815 44.7893 106.818 45.344C107.842 45.8773 109.004 46.144 110.306 46.144C111.33 46.144 112.279 45.9627 113.154 45.6C114.05 45.2373 114.818 44.6827 115.458 43.936L116.738 45.408C115.991 46.304 115.052 46.9867 113.922 47.456C112.812 47.9253 111.586 48.16 110.242 48.16ZM122.418 48V31.2H124.594V35.776L124.37 34.976C124.839 33.696 125.629 32.7253 126.738 32.064C127.847 31.3813 129.223 31.04 130.866 31.04V33.248C130.781 33.248 130.695 33.248 130.61 33.248C130.525 33.2267 130.439 33.216 130.354 33.216C128.583 33.216 127.197 33.76 126.194 34.848C125.191 35.9147 124.69 37.44 124.69 39.424V48H122.418ZM153.941 48.192C152.234 48.192 150.655 47.9147 149.205 47.36C147.775 46.784 146.527 45.984 145.461 44.96C144.415 43.936 143.594 42.7307 142.997 41.344C142.421 39.9573 142.133 38.4427 142.133 36.8C142.133 35.1573 142.421 33.6427 142.997 32.256C143.594 30.8693 144.426 29.664 145.493 28.64C146.559 27.616 147.807 26.8267 149.237 26.272C150.687 25.696 152.266 25.408 153.973 25.408C155.679 25.408 157.237 25.6747 158.645 26.208C160.074 26.7413 161.29 27.552 162.293 28.64L160.821 30.144C159.882 29.2053 158.847 28.5333 157.717 28.128C156.586 27.7227 155.37 27.52 154.069 27.52C152.682 27.52 151.402 27.7547 150.229 28.224C149.077 28.672 148.063 29.3227 147.189 30.176C146.335 31.008 145.663 31.9893 145.173 33.12C144.703 34.2293 144.469 35.456 144.469 36.8C144.469 38.1227 144.703 39.3493 145.173 40.48C145.663 41.6107 146.335 42.6027 147.189 43.456C148.063 44.288 149.077 44.9387 150.229 45.408C151.402 45.856 152.671 46.08 154.037 46.08C155.317 46.08 156.522 45.888 157.653 45.504C158.805 45.12 159.861 44.4693 160.821 43.552L162.165 45.344C161.098 46.2827 159.85 46.9973 158.421 47.488C156.991 47.9573 155.498 48.192 153.941 48.192ZM159.893 45.056V36.8H162.165V45.344L159.893 45.056ZM168.387 48V31.2H170.563V35.776L170.339 34.976C170.808 33.696 171.597 32.7253 172.707 32.064C173.816 31.3813 175.192 31.04 176.835 31.04V33.248C176.749 33.248 176.664 33.248 176.579 33.248C176.493 33.2267 176.408 33.216 176.323 33.216C174.552 33.216 173.165 33.76 172.163 34.848C171.16 35.9147 170.659 37.44 170.659 39.424V48H168.387ZM187.96 48.16C186.211 48.16 184.675 47.7973 183.352 47.072C182.03 46.3253 180.995 45.312 180.248 44.032C179.502 42.7307 179.128 41.248 179.128 39.584C179.128 37.92 179.48 36.448 180.184 35.168C180.91 33.888 181.891 32.8853 183.128 32.16C184.387 31.4133 185.795 31.04 187.352 31.04C188.931 31.04 190.328 31.4027 191.544 32.128C192.782 32.832 193.752 33.8347 194.456 35.136C195.16 36.416 195.512 37.8987 195.512 39.584C195.512 39.6907 195.502 39.808 195.48 39.936C195.48 40.0427 195.48 40.16 195.48 40.288H180.856V38.592H194.264L193.368 39.264C193.368 38.048 193.102 36.9707 192.568 36.032C192.056 35.072 191.352 34.3253 190.456 33.792C189.56 33.2587 188.526 32.992 187.352 32.992C186.2 32.992 185.166 33.2587 184.248 33.792C183.331 34.3253 182.616 35.072 182.104 36.032C181.592 36.992 181.336 38.0907 181.336 39.328V39.68C181.336 40.96 181.614 42.0907 182.168 43.072C182.744 44.032 183.534 44.7893 184.536 45.344C185.56 45.8773 186.723 46.144 188.024 46.144C189.048 46.144 189.998 45.9627 190.872 45.6C191.768 45.2373 192.536 44.6827 193.176 43.936L194.456 45.408C193.71 46.304 192.771 46.9867 191.64 47.456C190.531 47.9253 189.304 48.16 187.96 48.16ZM207.273 48.16C205.523 48.16 203.987 47.7973 202.665 47.072C201.342 46.3253 200.307 45.312 199.561 44.032C198.814 42.7307 198.441 41.248 198.441 39.584C198.441 37.92 198.793 36.448 199.497 35.168C200.222 33.888 201.203 32.8853 202.441 32.16C203.699 31.4133 205.107 31.04 206.665 31.04C208.243 31.04 209.641 31.4027 210.857 32.128C212.094 32.832 213.065 33.8347 213.769 35.136C214.473 36.416 214.825 37.8987 214.825 39.584C214.825 39.6907 214.814 39.808 214.793 39.936C214.793 40.0427 214.793 40.16 214.793 40.288H200.169V38.592H213.577L212.681 39.264C212.681 38.048 212.414 36.9707 211.881 36.032C211.369 35.072 210.665 34.3253 209.769 33.792C208.873 33.2587 207.838 32.992 206.665 32.992C205.513 32.992 204.478 33.2587 203.561 33.792C202.643 34.3253 201.929 35.072 201.417 36.032C200.905 36.992 200.649 38.0907 200.649 39.328V39.68C200.649 40.96 200.926 42.0907 201.481 43.072C202.057 44.032 202.846 44.7893 203.849 45.344C204.873 45.8773 206.035 46.144 207.337 46.144C208.361 46.144 209.31 45.9627 210.185 45.6C211.081 45.2373 211.849 44.6827 212.489 43.936L213.769 45.408C213.022 46.304 212.083 46.9867 210.953 47.456C209.843 47.9253 208.617 48.16 207.273 48.16ZM228.025 31.04C229.391 31.04 230.585 31.3067 231.609 31.84C232.655 32.352 233.465 33.1413 234.041 34.208C234.639 35.2747 234.937 36.6187 234.937 38.24V48H232.665V38.464C232.665 36.6933 232.217 35.36 231.321 34.464C230.447 33.5467 229.209 33.088 227.609 33.088C226.415 33.088 225.369 33.3333 224.473 33.824C223.599 34.2933 222.916 34.9867 222.425 35.904C221.956 36.8 221.721 37.888 221.721 39.168V48H219.449V31.2H221.625V35.808L221.273 34.944C221.807 33.728 222.66 32.7787 223.833 32.096C225.007 31.392 226.404 31.04 228.025 31.04ZM249.929 48V25.6H258.313C260.212 25.6 261.844 25.9093 263.209 26.528C264.575 27.1253 265.62 28 266.345 29.152C267.092 30.2827 267.465 31.6587 267.465 33.28C267.465 34.8587 267.092 36.224 266.345 37.376C265.62 38.5067 264.575 39.3813 263.209 40C261.844 40.6187 260.212 40.928 258.313 40.928H251.241L252.297 39.808V48H249.929ZM252.297 40L251.241 38.848H258.249C260.489 38.848 262.185 38.368 263.337 37.408C264.511 36.4267 265.097 35.0507 265.097 33.28C265.097 31.488 264.511 30.1013 263.337 29.12C262.185 28.1387 260.489 27.648 258.249 27.648H251.241L252.297 26.528V40ZM282.477 48V44.288L282.381 43.68V37.472C282.381 36.0427 281.976 34.944 281.165 34.176C280.376 33.408 279.192 33.024 277.613 33.024C276.525 33.024 275.491 33.2053 274.509 33.568C273.528 33.9307 272.696 34.4107 272.013 35.008L270.989 33.312C271.843 32.5867 272.867 32.032 274.061 31.648C275.256 31.2427 276.515 31.04 277.837 31.04C280.013 31.04 281.688 31.584 282.861 32.672C284.056 33.7387 284.653 35.3707 284.653 37.568V48H282.477ZM276.685 48.16C275.427 48.16 274.328 47.9573 273.389 47.552C272.472 47.1253 271.768 46.5493 271.277 45.824C270.787 45.0773 270.541 44.224 270.541 43.264C270.541 42.3893 270.744 41.6 271.149 40.896C271.576 40.1707 272.259 39.5947 273.197 39.168C274.157 38.72 275.437 38.496 277.037 38.496H282.829V40.192H277.101C275.48 40.192 274.349 40.48 273.709 41.056C273.091 41.632 272.781 42.3467 272.781 43.2C272.781 44.16 273.155 44.928 273.901 45.504C274.648 46.08 275.693 46.368 277.037 46.368C278.317 46.368 279.416 46.08 280.333 45.504C281.272 44.9067 281.955 44.0533 282.381 42.944L282.893 44.512C282.467 45.6213 281.72 46.5067 280.653 47.168C279.608 47.8293 278.285 48.16 276.685 48.16ZM299.496 48.16C298.046 48.16 296.734 47.8293 295.56 47.168C294.387 46.4853 293.448 45.5147 292.744 44.256C292.062 42.976 291.72 41.4187 291.72 39.584C291.72 37.7493 292.062 36.2027 292.744 34.944C293.427 33.664 294.355 32.6933 295.528 32.032C296.702 31.3707 298.024 31.04 299.496 31.04C301.096 31.04 302.526 31.4027 303.784 32.128C305.064 32.832 306.067 33.8347 306.792 35.136C307.518 36.416 307.88 37.8987 307.88 39.584C307.88 41.2907 307.518 42.784 306.792 44.064C306.067 45.344 305.064 46.3467 303.784 47.072C302.526 47.7973 301.096 48.16 299.496 48.16ZM290.824 54.208V31.2H293V36.256L292.776 39.616L293.096 43.008V54.208H290.824ZM299.336 46.144C300.531 46.144 301.598 45.8773 302.536 45.344C303.475 44.7893 304.222 44.0213 304.776 43.04C305.331 42.0373 305.608 40.8853 305.608 39.584C305.608 38.2827 305.331 37.1413 304.776 36.16C304.222 35.1787 303.475 34.4107 302.536 33.856C301.598 33.3013 300.531 33.024 299.336 33.024C298.142 33.024 297.064 33.3013 296.104 33.856C295.166 34.4107 294.419 35.1787 293.864 36.16C293.331 37.1413 293.064 38.2827 293.064 39.584C293.064 40.8853 293.331 42.0373 293.864 43.04C294.419 44.0213 295.166 44.7893 296.104 45.344C297.064 45.8773 298.142 46.144 299.336 46.144ZM319.648 48.16C317.898 48.16 316.362 47.7973 315.04 47.072C313.717 46.3253 312.682 45.312 311.936 44.032C311.189 42.7307 310.816 41.248 310.816 39.584C310.816 37.92 311.168 36.448 311.872 35.168C312.597 33.888 313.578 32.8853 314.816 32.16C316.074 31.4133 317.482 31.04 319.04 31.04C320.618 31.04 322.016 31.4027 323.232 32.128C324.469 32.832 325.44 33.8347 326.144 35.136C326.848 36.416 327.2 37.8987 327.2 39.584C327.2 39.6907 327.189 39.808 327.168 39.936C327.168 40.0427 327.168 40.16 327.168 40.288H312.544V38.592H325.952L325.056 39.264C325.056 38.048 324.789 36.9707 324.256 36.032C323.744 35.072 323.04 34.3253 322.144 33.792C321.248 33.2587 320.213 32.992 319.04 32.992C317.888 32.992 316.853 33.2587 315.936 33.792C315.018 34.3253 314.304 35.072 313.792 36.032C313.28 36.992 313.024 38.0907 313.024 39.328V39.68C313.024 40.96 313.301 42.0907 313.856 43.072C314.432 44.032 315.221 44.7893 316.224 45.344C317.248 45.8773 318.41 46.144 319.712 46.144C320.736 46.144 321.685 45.9627 322.56 45.6C323.456 45.2373 324.224 44.6827 324.864 43.936L326.144 45.408C325.397 46.304 324.458 46.9867 323.328 47.456C322.218 47.9253 320.992 48.16 319.648 48.16ZM331.824 48V31.2H334V35.776L333.776 34.976C334.246 33.696 335.035 32.7253 336.144 32.064C337.254 31.3813 338.63 31.04 340.272 31.04V33.248C340.187 33.248 340.102 33.248 340.016 33.248C339.931 33.2267 339.846 33.216 339.76 33.216C337.99 33.216 336.603 33.76 335.6 34.848C334.598 35.9147 334.096 37.44 334.096 39.424V48H331.824Z" fill="#5CC85A"/>
<path d="M35.9357 53.5618C35.9878 48.2382 34.6382 43.9091 32.9214 43.8923C31.2044 43.8756 29.7704 48.1776 29.7185 53.501C29.6664 58.8246 31.0161 63.1539 32.7329 63.1706C34.4498 63.1874 35.8838 58.8854 35.9357 53.5618Z" fill="#5CC85A"/>
<path d="M25.9785 52.3528C28.9007 47.9025 30.106 43.531 28.6709 42.5886C27.2356 41.6462 23.7033 44.4898 20.7813 48.94C17.8591 53.3903 16.6537 57.7617 18.0889 58.7042C19.5242 59.6466 23.0564 56.803 25.9785 52.3528Z" fill="#98C85A"/>
<path d="M18.2439 45.9679C23.1082 43.8042 26.4858 40.7785 25.7879 39.2097C25.0902 37.6409 20.5813 38.1233 15.7169 40.287C10.8526 42.4506 7.47503 45.4764 8.17282 47.0452C8.87061 48.614 13.3796 48.1316 18.2439 45.9679Z" fill="#63C85A"/>
<path d="M25.2041 34.8104C25.4653 33.1135 21.4115 31.0813 16.1497 30.2713C10.8878 29.4614 6.41053 30.1806 6.14934 31.8776C5.88816 33.5746 9.94199 35.6066 15.2038 36.4166C20.4656 37.2265 24.943 36.5073 25.2041 34.8104Z" fill="#88C85A"/>
<path d="M27.0933 30.7678C28.2303 29.4814 25.9182 25.5804 21.9291 22.0548C17.94 18.5293 13.7844 16.7141 12.6474 18.0007C11.5104 19.2872 13.8225 23.1881 17.8117 26.7137C21.8008 30.2393 25.9564 32.0544 27.0933 30.7678Z" fill="#5CC85A"/>
<path d="M30.8556 28.4052C32.5077 27.9378 32.6718 23.406 31.2223 18.2834C29.7728 13.1607 27.2583 9.38694 25.6063 9.85443C23.9542 10.3219 23.7901 14.8536 25.2396 19.9763C26.6891 25.0989 29.2036 28.8727 30.8556 28.4052Z" fill="#98C85A"/>
<path d="M41.0717 20.1357C42.6221 15.0426 42.5474 10.5086 40.9048 10.0086C39.2623 9.5086 36.6739 13.232 35.1236 18.3251C33.5734 23.4182 33.6481 27.9523 35.2906 28.4522C36.9332 28.9522 39.5215 25.2288 41.0717 20.1357Z" fill="#63C85A"/>
<path d="M48.3716 27.0175C52.429 23.5706 54.8169 19.7156 53.7052 18.4071C52.5936 17.0986 48.4033 18.8322 44.3461 22.2791C40.2888 25.726 37.9009 29.581 39.0125 30.8895C40.1241 32.198 44.3144 30.4645 48.3716 27.0175Z" fill="#88C85A"/>
<path d="M50.7854 36.7562C56.0622 36.0502 60.1553 34.0984 59.9275 32.3966C59.7 30.6949 55.2377 29.8876 49.9608 30.5935C44.6841 31.2994 40.5909 33.2513 40.8186 34.9531C41.0463 36.6548 45.5085 37.4622 50.7854 36.7562Z" fill="#5CC85A"/>
<path d="M57.5925 47.5316C58.3211 45.9769 55.0038 42.8852 50.1831 40.626C45.3625 38.3668 40.8639 37.7957 40.1353 39.3503C39.4067 40.9051 42.7239 43.9968 47.5447 46.256C52.3653 48.5151 56.8639 49.0863 57.5925 47.5316Z" fill="#63C85A"/>
<path d="M47.4523 59.0027C48.9058 58.0888 47.7869 53.6943 44.9531 49.1873C42.1193 44.6804 38.6437 41.7678 37.1903 42.6816C35.7368 43.5954 36.8557 47.99 39.6895 52.4969C42.5233 57.0039 45.9988 59.9166 47.4523 59.0027Z" fill="#88C85A"/>
</svg>
