<svg width="58" height="58" viewBox="0 0 58 58" fill="none" xmlns="http://www.w3.org/2000/svg">
<path d="M31.9357 46.5618C31.9878 41.2382 30.6382 36.9091 28.9214 36.8923C27.2044 36.8756 25.7704 41.1776 25.7185 46.501C25.6664 51.8246 27.0161 56.1539 28.7329 56.1706C30.4498 56.1874 31.8838 51.8854 31.9357 46.5618Z" fill="#5CC85A"/>
<path d="M21.9785 45.3528C24.9007 40.9025 26.106 36.531 24.6709 35.5886C23.2356 34.6462 19.7033 37.4898 16.7813 41.94C13.8591 46.3903 12.6537 50.7617 14.0889 51.7042C15.5242 52.6466 19.0564 49.803 21.9785 45.3528Z" fill="#98C85A"/>
<path d="M14.2439 38.9679C19.1082 36.8042 22.4858 33.7785 21.7879 32.2097C21.0902 30.6409 16.5813 31.1233 11.7169 33.287C6.85263 35.4506 3.47503 38.4764 4.17282 40.0452C4.87061 41.614 9.37958 41.1316 14.2439 38.9679Z" fill="#63C85A"/>
<path d="M21.2041 27.8104C21.4653 26.1135 17.4115 24.0813 12.1497 23.2713C6.88783 22.4614 2.41053 23.1806 2.14934 24.8776C1.88816 26.5746 5.94199 28.6066 11.2038 29.4166C16.4656 30.2265 20.943 29.5073 21.2041 27.8104Z" fill="#88C85A"/>
<path d="M23.0933 23.7678C24.2303 22.4814 21.9182 18.5804 17.9291 15.0548C13.94 11.5293 9.78439 9.71414 8.64738 11.0007C7.51037 12.2872 9.82248 16.1881 13.8117 19.7137C17.8008 23.2393 21.9564 25.0544 23.0933 23.7678Z" fill="#5CC85A"/>
<path d="M26.8556 21.4052C28.5077 20.9378 28.6718 16.406 27.2223 11.2834C25.7728 6.1607 23.2583 2.38694 21.6063 2.85443C19.9542 3.32193 19.7901 7.85363 21.2396 12.9763C22.6891 18.0989 25.2036 21.8727 26.8556 21.4052Z" fill="#98C85A"/>
<path d="M37.0717 13.1357C38.6221 8.04263 38.5474 3.50856 36.9048 3.00859C35.2623 2.5086 32.6739 6.23204 31.1236 11.3251C29.5734 16.4182 29.6481 20.9523 31.2906 21.4522C32.9332 21.9522 35.5215 18.2288 37.0717 13.1357Z" fill="#63C85A"/>
<path d="M44.3716 20.0175C48.429 16.5706 50.8169 12.7156 49.7052 11.4071C48.5936 10.0986 44.4033 11.8322 40.3461 15.2791C36.2888 18.726 33.9009 22.581 35.0125 23.8895C36.1241 25.198 40.3144 23.4645 44.3716 20.0175Z" fill="#88C85A"/>
<path d="M46.7854 29.7562C52.0622 29.0502 56.1553 27.0984 55.9275 25.3966C55.7 23.6949 51.2377 22.8876 45.9608 23.5935C40.6841 24.2994 36.5909 26.2513 36.8186 27.9531C37.0463 29.6548 41.5085 30.4622 46.7854 29.7562Z" fill="#5CC85A"/>
<path d="M53.5925 40.5316C54.3211 38.9769 51.0038 35.8852 46.1831 33.626C41.3625 31.3668 36.8639 30.7957 36.1353 32.3503C35.4067 33.9051 38.7239 36.9968 43.5447 39.256C48.3653 41.5151 52.8639 42.0863 53.5925 40.5316Z" fill="#63C85A"/>
<path d="M43.4523 52.0027C44.9058 51.0888 43.7869 46.6943 40.9531 42.1873C38.1193 37.6804 34.6437 34.7678 33.1903 35.6816C31.7368 36.5954 32.8557 40.99 35.6895 45.4969C38.5233 50.0039 41.9988 52.9166 43.4523 52.0027Z" fill="#88C85A"/>
</svg>
